<svg xmlns="http://www.w3.org/2000/svg" enable-background="new 0 0 64 64" viewBox="0 0 64 64" id="list-file"><circle cx="32" cy="32" r="32" fill="#ffc42e"></circle><path d="M33.06,11.94c0-0.52-0.42-0.94-0.94-0.94h-18.2c-0.52,0-0.94,0.42-0.94,0.94V46.6c0,0.52,0.42,0.94,0.94,0.94
			c0.52,0,0.94-0.42,0.94-0.94V12.88h17.26C32.64,12.88,33.06,12.46,33.06,11.94z"></path><path d="M50.09,31.46h-6.29v-5.95c-0.01-0.01-0.01-0.02-0.01-0.03c-0.01-0.12-0.03-0.22-0.07-0.33c-0.01-0.01-0.01-0.01-0.01-0.01
			c-0.05-0.11-0.12-0.2-0.2-0.29c0,0,0-0.01-0.01-0.01l-9.78-9.14c0-0.01-0.01-0.01-0.01-0.01c-0.09-0.08-0.18-0.14-0.29-0.18
			c-0.01,0-0.03-0.01-0.04-0.01c-0.09-0.03-0.19-0.06-0.3-0.06H18.21c-0.52,0-0.94,0.42-0.94,0.94v32.75c0,0.52,0.42,0.94,0.94,0.94
			h15.2v1.98c0,0.52,0.42,0.94,0.94,0.94h15.74c0.52,0,0.94-0.42,0.94-0.94V32.4C51.03,31.88,50.61,31.46,50.09,31.46z M34.02,18.56
			l6.46,6.03h-6.46V18.56z M33.4,32.4v15.8H19.15V17.33h12.98v8.2c0,0.52,0.42,0.94,0.94,0.94h8.83v4.98h-7.57
			C33.82,31.46,33.4,31.88,33.4,32.4z M49.15,51.12H35.29V33.34h13.86V51.12z"></path><path fill="#e1e9ff" d="M41.91,26.47v4.98h-7.57c-0.52,0-0.94,0.42-0.94,0.94v15.8H19.15V17.33h12.98v8.2c0,0.52,0.42,0.94,0.94,0.94
			H41.91z"></path><polygon fill="#ea526c" points="40.47 24.59 34.02 24.59 34.02 18.56"></polygon><path fill="#42c3fc" d="M35.29,33.34v17.78h13.86V33.34H35.29z M41.29,47.47c0,0.52-0.42,0.94-0.94,0.94h-3.5
			c-0.52,0-0.94-0.42-0.94-0.94v-3.5c0-0.52,0.42-0.94,0.94-0.94h3.5c0.52,0,0.94,0.42,0.94,0.94V47.47z M41.29,40.48
			c0,0.52-0.42,0.94-0.94,0.94h-3.5c-0.52,0-0.94-0.42-0.94-0.94v-3.5c0-0.52,0.42-0.94,0.94-0.94h3.5c0.52,0,0.94,0.42,0.94,0.94
			V40.48z M47.58,46.67h-4.53c-0.52,0-0.94-0.42-0.94-0.94c0-0.53,0.42-0.94,0.94-0.94h4.53c0.52,0,0.94,0.42,0.94,0.94
			C48.52,46.25,48.1,46.67,47.58,46.67z M47.58,39.67h-4.53c-0.52,0-0.94-0.42-0.94-0.94c0-0.52,0.42-0.94,0.94-0.94h4.53
			c0.52,0,0.94,0.42,0.94,0.94C48.52,39.25,48.1,39.67,47.58,39.67z"></path><path d="M40.35,36.04h-3.5c-0.52,0-0.94,0.42-0.94,0.94v3.5c0,0.52,0.42,0.94,0.94,0.94h3.5c0.52,0,0.94-0.42,0.94-0.94v-3.5
			C41.29,36.46,40.87,36.04,40.35,36.04z M39.41,39.54h-1.62v-1.62h1.62V39.54z"></path><rect width="1.62" height="1.62" x="37.79" y="37.92" fill="#ea526c"></rect><path d="M48.52 38.73c0 .52-.43.94-.94.94h-4.53c-.52 0-.94-.42-.94-.94 0-.52.42-.94.94-.94h4.53C48.1 37.79 48.52 38.21 48.52 38.73zM40.35 43.04h-3.5c-.52 0-.94.42-.94.94v3.5c0 .52.42.94.94.94h3.5c.52 0 .94-.42.94-.94v-3.5C41.29 43.46 40.87 43.04 40.35 43.04zM39.41 46.54h-1.62v-1.62h1.62V46.54z"></path><rect width="1.62" height="1.62" x="37.79" y="44.92" fill="#ea526c"></rect><path d="M48.52,45.73c0,0.52-0.43,0.94-0.94,0.94h-4.53c-0.52,0-0.94-0.42-0.94-0.94c0-0.53,0.42-0.94,0.94-0.94h4.53
			C48.1,44.78,48.52,45.2,48.52,45.73z"></path></svg>